<?xml version="1.0" encoding="UTF-8"?><svg id="Ebene_1" xmlns="http://www.w3.org/2000/svg" xmlns:xlink="http://www.w3.org/1999/xlink" viewBox="0 0 297.5 84.25"><defs><style>.cls-1{fill:#8a959c;}.cls-2{fill:#00a7dd;}.cls-3{clip-path:url(#clippath);}.cls-4{fill:none;}.cls-5{fill:#1d1d1b;}</style><clipPath id="clippath"><rect class="cls-4" width="297.5" height="84.25"/></clipPath></defs><g class="cls-3"><g><g><polygon class="cls-1" points="248.36 38.31 248.36 19.18 222.85 19.18 222.85 38.31 235.6 29.81 248.36 38.31"/><polygon class="cls-2" points="278.41 19.18 278.41 38.31 252.89 38.31 252.89 19.18 265.65 27.68 278.41 19.18"/></g><g><rect class="cls-5" x="52.27" y="46.07" width="7.13" height="18.68"/><path class="cls-5" d="M142.65,45.63c-2.45,0-4.79,1.19-5.9,3.64-.68-2.45-2.88-3.64-5.33-3.64-2.95,0-4.9,1.44-6.08,3.67h-.11v-3.13h-2.09v18.58h2.27v-10.37c.04-3.89,1.62-6.84,5.54-6.84,2.88,0,3.92,2.09,3.89,4.61v12.6h2.27v-10.51c0-3.46,1.12-6.7,5.04-6.7,3.24,0,4.39,1.66,4.39,4.72v12.49h2.27v-12.6c0-4.39-2.09-6.52-6.16-6.52Z"/><path class="cls-5" d="M111.6,48.12h-.07c-1.08-1.58-2.99-2.52-5.11-2.52-6.26,0-7.96,5.33-7.96,9.72,0,4.68,2.56,9.9,7.85,9.9,3.49,0,4.57-1.33,5.47-2.52h.07v2.05h6.88v-26.44h-7.13v9.81Zm-2.88,11.92c-2.56,0-3.13-2.41-3.13-4.64s.58-4.61,3.13-4.61,3.13,2.41,3.13,4.61-.58,4.64-3.13,4.64Z"/><polygon class="cls-5" points="41.31 57.62 41.16 57.62 38.68 46.07 32.02 46.07 29.64 57.62 29.57 57.62 26.8 46.07 19.38 46.07 25.22 64.75 32.52 64.75 35.3 53.27 35.37 53.27 38.07 64.75 45.38 64.75 51.32 46.07 43.9 46.07 41.31 57.62"/><path class="cls-5" d="M69.47,57.37c0-4,1.51-5.65,4.32-5.65,1.44,0,2.09,.22,2.81,.47v-6.3c-.68-.18-1.37-.29-2.09-.29-2.59,0-4.1,1.22-5.26,3.46h-.07v-2.99h-6.84v18.68h7.13v-7.38Z"/><rect class="cls-5" x="153.75" y="39.85" width="2.27" height="3.92"/><path class="cls-5" d="M210.75,54.56l-3.02-.68c-1.55-.4-3.85-1.12-3.85-3.13,0-2.41,2.37-3.2,4.39-3.2,2.59,0,4.75,1.26,4.86,4.07h2.27c-.14-4.03-3.1-5.98-6.8-5.98-3.28,0-6.98,1.44-6.98,5.22,0,3.17,2.23,4.18,5.18,4.97l2.92,.65c2.05,.5,4.07,1.22,4.07,3.38,0,2.59-2.95,3.53-5.08,3.53-3.03,0-5.29-1.58-5.47-4.64h-2.27c.36,4.54,3.31,6.55,7.63,6.55,3.46,0,7.45-1.55,7.45-5.58,0-3.24-2.7-4.75-5.29-5.15Z"/><path class="cls-5" d="M169.13,45.63c-2.63,0-5.11,1.51-5.94,3.74h-.07v-3.2h-2.27v18.58h2.27v-10.84c.07-3.64,2.23-6.37,5.83-6.37s4.72,2.41,4.72,5.62v11.59h2.27v-11.95c0-4.43-1.58-7.16-6.8-7.16Z"/><path class="cls-5" d="M87.35,65.22c4.25,0,8.17-1.87,9.61-5.9h-6.66c-.58,.9-1.84,1.33-2.99,1.33-2.23,0-3.46-1.51-3.64-3.64h13.68c0-7.27-3.2-11.41-10.62-11.41-5.9,0-9.86,4.43-9.86,9.86,0,6.23,4.5,9.76,10.48,9.76Zm.04-15.05c1.84,0,3.13,1.4,3.13,3.13h-6.8c.32-2.02,1.55-3.13,3.67-3.13Z"/><rect class="cls-5" x="153.75" y="46.17" width="2.27" height="18.58"/><rect class="cls-5" x="52.27" y="38.31" width="7.13" height="5.46"/><path class="cls-5" d="M194.94,61.22h.07v3.53h2.09v-26.44h-2.27v11.39h-.07c-.97-2.66-3.67-4.07-6.44-4.07-5.65,0-8.35,4.57-8.35,9.83s2.7,9.83,8.35,9.83c2.7,0,5.65-1.66,6.62-4.07Zm-12.71-5.76c0-3.85,1.76-7.92,6.08-7.92,4.82,0,6.52,4.07,6.52,7.92s-1.69,7.92-6.52,7.92c-4.32,0-6.08-4.07-6.08-7.92Z"/></g></g></g></svg>