<svg width="298" height="85" viewBox="0 0 298 85" fill="none" xmlns="http://www.w3.org/2000/svg">
<path d="M248.36 38.31V19.18H222.85V38.31L235.6 29.81L248.36 38.31Z" fill="white"/>
<path d="M278.41 19.18V38.31H252.89V19.18L265.65 27.68L278.41 19.18Z" fill="white"/>
<path d="M59.4 46.07H52.27V64.75H59.4V46.07Z" fill="white"/>
<path d="M142.65 45.63C140.2 45.63 137.86 46.82 136.75 49.27C136.07 46.82 133.87 45.63 131.42 45.63C128.47 45.63 126.52 47.07 125.34 49.3H125.23V46.17H123.14V64.75H125.41V54.38C125.45 50.49 127.03 47.54 130.95 47.54C133.83 47.54 134.87 49.63 134.84 52.15V64.75H137.11V54.24C137.11 50.78 138.23 47.54 142.15 47.54C145.39 47.54 146.54 49.2 146.54 52.26V64.75H148.81V52.15C148.81 47.76 146.72 45.63 142.65 45.63V45.63Z" fill="white"/>
<path d="M111.6 48.12H111.53C110.45 46.54 108.54 45.6 106.42 45.6C100.16 45.6 98.46 50.93 98.46 55.32C98.46 60 101.02 65.22 106.31 65.22C109.8 65.22 110.88 63.89 111.78 62.7H111.85V64.75H118.73V38.31H111.6V48.12V48.12ZM108.72 60.04C106.16 60.04 105.59 57.63 105.59 55.4C105.59 53.17 106.17 50.79 108.72 50.79C111.27 50.79 111.85 53.2 111.85 55.4C111.85 57.6 111.27 60.04 108.72 60.04Z" fill="white"/>
<path d="M41.31 57.62H41.16L38.68 46.07H32.02L29.64 57.62H29.57L26.8 46.07H19.38L25.22 64.75H32.52L35.3 53.27H35.37L38.07 64.75H45.38L51.32 46.07H43.9L41.31 57.62Z" fill="white"/>
<path d="M69.47 57.37C69.47 53.37 70.98 51.72 73.79 51.72C75.23 51.72 75.88 51.94 76.6 52.19V45.89C75.92 45.71 75.23 45.6 74.51 45.6C71.92 45.6 70.41 46.82 69.25 49.06H69.18V46.07H62.34V64.75H69.47V57.37V57.37Z" fill="white"/>
<path d="M156.02 39.85H153.75V43.77H156.02V39.85Z" fill="white"/>
<path d="M210.75 54.56L207.73 53.88C206.18 53.48 203.88 52.76 203.88 50.75C203.88 48.34 206.25 47.55 208.27 47.55C210.86 47.55 213.02 48.81 213.13 51.62H215.4C215.26 47.59 212.3 45.64 208.6 45.64C205.32 45.64 201.62 47.08 201.62 50.86C201.62 54.03 203.85 55.04 206.8 55.83L209.72 56.48C211.77 56.98 213.79 57.7 213.79 59.86C213.79 62.45 210.84 63.39 208.71 63.39C205.68 63.39 203.42 61.81 203.24 58.75H200.97C201.33 63.29 204.28 65.3 208.6 65.3C212.06 65.3 216.05 63.75 216.05 59.72C216.05 56.48 213.35 54.97 210.76 54.57L210.75 54.56Z" fill="white"/>
<path d="M169.13 45.63C166.5 45.63 164.02 47.14 163.19 49.37H163.12V46.17H160.85V64.75H163.12V53.91C163.19 50.27 165.35 47.54 168.95 47.54C172.55 47.54 173.67 49.95 173.67 53.16V64.75H175.94V52.8C175.94 48.37 174.36 45.64 169.14 45.64L169.13 45.63Z" fill="white"/>
<path d="M87.35 65.22C91.6 65.22 95.52 63.35 96.96 59.32H90.3C89.72 60.22 88.46 60.65 87.31 60.65C85.08 60.65 83.85 59.14 83.67 57.01H97.35C97.35 49.74 94.15 45.6 86.73 45.6C80.83 45.6 76.87 50.03 76.87 55.46C76.87 61.69 81.37 65.22 87.35 65.22ZM87.39 50.17C89.23 50.17 90.52 51.57 90.52 53.3H83.72C84.04 51.28 85.27 50.17 87.39 50.17Z" fill="white"/>
<path d="M156.02 46.17H153.75V64.75H156.02V46.17Z" fill="white"/>
<path d="M59.4 38.31H52.27V43.77H59.4V38.31Z" fill="white"/>
<path d="M194.94 61.22H195.01V64.75H197.1V38.31H194.83V49.7H194.76C193.79 47.04 191.09 45.63 188.32 45.63C182.67 45.63 179.97 50.2 179.97 55.46C179.97 60.72 182.67 65.29 188.32 65.29C191.02 65.29 193.97 63.63 194.94 61.22V61.22ZM182.23 55.46C182.23 51.61 183.99 47.54 188.31 47.54C193.13 47.54 194.83 51.61 194.83 55.46C194.83 59.31 193.14 63.38 188.31 63.38C183.99 63.38 182.23 59.31 182.23 55.46Z" fill="white"/>
</svg>
