<?xml version="1.0" encoding="UTF-8"?><svg xmlns="http://www.w3.org/2000/svg" viewBox="0 0 133.09 44.17"><defs><style>.cls-1{fill:#00a7dd;}.cls-2{fill:#464b4d;}</style></defs><g id="Ebene_4"><polygon class="cls-1" points="0 .16 10.9 16.51 0 32.86 24.52 32.86 24.52 .16 0 .16"/></g><g id="Ebene_2"><g><path class="cls-2" d="M37.38,.53V32.6h-6.6V.53h6.6Z"/><path class="cls-2" d="M50.18,21.16v11.44h-6.6V.53h14.17c3.34,0,5.9,.85,7.68,2.55,1.78,1.7,2.66,4.17,2.66,7.39s-.88,5.85-2.64,7.79-4.11,2.9-7.04,2.9h-8.23Zm0-5.5h6.16c3.43,0,5.15-1.6,5.15-4.8,0-1.64-.42-2.86-1.25-3.65s-2.14-1.19-3.9-1.19h-6.16V15.66Z"/><path class="cls-2" d="M92.25,10.65c0,1.73-.37,3.3-1.12,4.71-.75,1.41-1.69,2.59-2.84,3.54-1.14,.95-2.32,1.83-3.52,2.64s-2.36,1.69-3.48,2.64c-1.12,.95-1.91,1.93-2.38,2.93h13.2v5.5h-21.21c.15-2.87,.73-5.15,1.74-6.84,1.01-1.69,2.84-3.45,5.48-5.3,3.43-2.4,5.62-4.19,6.56-5.35,.94-1.16,1.41-2.6,1.41-4.33,0-1.55-.39-2.78-1.17-3.67-.78-.89-1.86-1.34-3.23-1.34s-2.5,.48-3.28,1.45c-.78,.97-1.17,2.32-1.17,4.05v1.01h-5.9c-.03-.32-.04-.69-.04-1.1,0-3.28,.9-5.84,2.71-7.68,1.8-1.83,4.32-2.75,7.55-2.75s5.89,.9,7.81,2.68c1.92,1.79,2.88,4.19,2.88,7.22Z"/><path class="cls-2" d="M117.77,11.4c-.82-3.84-3.11-5.76-6.86-5.76-2.61,0-4.65,1-6.12,2.99-1.47,2-2.2,4.77-2.2,8.32s.71,6.22,2.13,8.18,3.41,2.95,5.96,2.95c2.05,0,3.7-.56,4.93-1.67,1.23-1.11,1.95-2.7,2.16-4.75h6.42c-.21,3.67-1.54,6.58-4,8.73s-5.69,3.23-9.68,3.23c-4.46,0-7.99-1.5-10.6-4.51-2.61-3.01-3.92-7.09-3.92-12.25s1.32-9.3,3.96-12.32c2.64-3.02,6.22-4.53,10.74-4.53,3.78,0,6.89,1.01,9.31,3.04,2.42,2.02,3.78,4.81,4.07,8.36h-6.29Z"/></g></g></svg>